<svg width="67" height="63" viewBox="0 0 67 63" fill="none" xmlns="http://www.w3.org/2000/svg">
<g opacity="0.7">
<path fill-rule="evenodd" clip-rule="evenodd" d="M36.9909 82.5198C32.2943 85.4255 26.1313 83.9736 23.2256 79.2769L3.00026 46.5849C0.0945749 41.8883 1.54648 35.7253 6.24316 32.8196L10.5061 30.1823L17.8015 25.6689L25.0969 21.1555L31.7084 17.0652C35.3598 14.8061 40.1512 15.9349 42.4102 19.5863L63.8065 54.1709C66.7122 58.8676 65.2603 65.0305 60.5636 67.9362L36.9909 82.5198Z" fill="#2FDBBC"/>
<path d="M10.5061 30.1823L6.24316 32.8196C1.54648 35.7253 0.0945767 41.8883 3.00026 46.5849L23.2256 79.2769C26.1313 83.9736 32.2943 85.4255 36.9909 82.5198L60.5636 67.9362C65.2603 65.0305 66.7122 58.8676 63.8065 54.1709L42.4102 19.5863C40.1512 15.9349 35.3598 14.8061 31.7084 17.0652V17.0652M10.5061 30.1823C8.14113 25.3406 5.10916 14.7328 11.9007 11.0355C18.6923 7.33815 23.528 16.2416 25.0969 21.1555M10.5061 30.1823L17.8015 25.6689M25.0969 21.1555L17.8015 25.6689M25.0969 21.1555L31.7084 17.0652M17.8015 25.6689C13.7236 19.2045 7.09613 5.47793 13.2092 2.28687C19.3224 -0.904196 28.0892 10.8094 31.7084 17.0652" stroke="#2FDBBC" stroke-width="2" stroke-linecap="round" stroke-linejoin="round"/>
</g>
</svg>
